# xmcd CD database file
#
# Track frame offsets:
#	150
#	17232
#	34619
#	53851
#	68802
#	83806
#	98371
#	113571
#	129050
#	139569
#
# Disc length: 2175 seconds
#
# Revision: 0
# Processed by: cddbd v1.5.2PL0 Copyright (c) Steve Scherf et al.
# Submitted via: CDex 1.51
#
DISCID=6f087d0a
DTITLE=The Jeremy Miller Band - Way Too Fast
DYEAR=2008
DGENRE=Country
TTITLE0=The Jeremy Miller Band - Way Too Fast
TTITLE1=The Jeremy Miller Band - Take a Look
TTITLE2=The Jeremy Miller Band - Sorry
TTITLE3=The Jeremy Miller Band - Life I Lead
TTITLE4=The Jeremy Miller Band - Little Bit
TTITLE5=The Jeremy Miller Band - Reckless
TTITLE6=The Jeremy Miller Band - Gettin' Away
TTITLE7=The Jeremy Miller Band - Cry
TTITLE8=The Jeremy Miller Band - No More
TTITLE9=The Jeremy Miller Band - 17 Wheels
EXTD=YEAR: 2008
EXTT0=
EXTT1=
EXTT2=
EXTT3=
EXTT4=
EXTT5=
EXTT6=
EXTT7=
EXTT8=
EXTT9=
PLAYORDER=
